<svg width="18" height="22" viewBox="0 0 18 22" fill="none" xmlns="http://www.w3.org/2000/svg">
<path d="M0.875 18.4583V16.8334H2.83334V8.75001C2.83334 7.29307 3.28299 6.00488 4.18228 4.88544C5.08159 3.76599 6.23611 3.05003 7.64583 2.73754V2.06254C7.64583 1.68639 7.77737 1.36666 8.04044 1.10336C8.30351 0.840036 8.62294 0.708374 8.99875 0.708374C9.37456 0.708374 9.69441 0.840036 9.95829 1.10336C10.2222 1.36666 10.3541 1.68639 10.3541 2.06254V2.73754C11.7638 3.05003 12.9184 3.76599 13.8177 4.88544C14.717 6.00488 15.1666 7.29307 15.1666 8.75001V16.8334H17.1249V18.4583H0.875ZM8.99813 21.5C8.45908 21.5 7.99824 21.3082 7.61561 20.9247C7.23298 20.5412 7.04166 20.0802 7.04166 19.5417H10.9583C10.9583 20.0819 10.7664 20.5434 10.3825 20.926C9.99863 21.3087 9.53718 21.5 8.99813 21.5ZM4.45829 16.8334H13.5417V8.75001C13.5417 7.49584 13.0982 6.42535 12.2114 5.53855C11.3246 4.65174 10.2541 4.20833 8.99997 4.20833C7.7458 4.20833 6.67531 4.65174 5.78851 5.53855C4.9017 6.42535 4.45829 7.49584 4.45829 8.75001V16.8334Z" fill="#1C1B1F"/>
</svg>
