<svg width="24" height="24" viewBox="0 0 24 24" fill="none" xmlns="http://www.w3.org/2000/svg">
<mask id="mask0_11_2006" style="mask-type:alpha" maskUnits="userSpaceOnUse" x="0" y="0" width="24" height="24">
<rect width="24" height="24" fill="#D9D9D9"/>
</mask>
<g mask="url(#mask0_11_2006)">
<path d="M18.4403 21.5C16.5557 21.5 14.6625 21.0618 12.7606 20.1855C10.8586 19.3092 9.11121 18.073 7.51828 16.4769C5.92533 14.8807 4.69071 13.1333 3.81443 11.2346C2.93814 9.33589 2.5 7.44423 2.5 5.55963C2.5 5.25688 2.6 5.00458 2.8 4.80275C3 4.60092 3.25 4.5 3.55 4.5H6.8115C7.06407 4.5 7.28683 4.58238 7.47977 4.74713C7.67272 4.91188 7.79548 5.1154 7.84803 5.3577L8.4211 8.29998C8.46085 8.57306 8.45252 8.80768 8.3961 9.00383C8.3397 9.19998 8.23842 9.36472 8.09225 9.49805L5.78265 11.7461C6.15445 12.4269 6.57913 13.0708 7.0567 13.6779C7.53427 14.2849 8.05125 14.8647 8.60765 15.4173C9.15638 15.966 9.73973 16.4756 10.3577 16.9462C10.9756 17.4167 11.6429 17.8545 12.3596 18.2596L14.6038 15.9962C14.7602 15.8333 14.9497 15.7192 15.1721 15.6539C15.3945 15.5885 15.6256 15.5724 15.8654 15.6058L18.6423 16.1712C18.8948 16.2378 19.1009 16.3667 19.2605 16.5577C19.4201 16.7487 19.5 16.9654 19.5 17.2077V20.45C19.5 20.75 19.399 21 19.1972 21.2C18.9954 21.4 18.7431 21.5 18.4403 21.5ZM5.07305 10.3269L6.85768 8.61923C6.88973 8.59358 6.91056 8.55832 6.92018 8.51345C6.92979 8.46857 6.92819 8.4269 6.91538 8.38845L6.48075 6.15383C6.46793 6.10254 6.4455 6.06408 6.41345 6.03845C6.3814 6.0128 6.33973 5.99998 6.28845 5.99998H4.14998C4.11153 5.99998 4.07948 6.0128 4.05383 6.03845C4.02818 6.06408 4.01535 6.09613 4.01535 6.1346C4.06663 6.81793 4.17849 7.51217 4.35093 8.2173C4.52338 8.92243 4.76408 9.62564 5.07305 10.3269ZM13.773 18.9692C14.4359 19.2782 15.1272 19.5144 15.8471 19.6779C16.567 19.8413 17.2397 19.9384 17.8654 19.9692C17.9038 19.9692 17.9359 19.9564 17.9615 19.9308C17.9872 19.9051 18 19.873 18 19.8346V17.7308C18 17.6795 17.9872 17.6378 17.9615 17.6057C17.9359 17.5737 17.8974 17.5512 17.8461 17.5384L15.7461 17.1115C15.7077 17.0987 15.674 17.0971 15.6452 17.1067C15.6163 17.1163 15.5859 17.1372 15.5538 17.1692L13.773 18.9692ZM16.7514 12C15.4376 12 14.3173 11.537 13.3904 10.611C12.4634 9.68506 12 8.56519 12 7.25143C12 5.93766 12.463 4.81732 13.3889 3.8904C14.3149 2.96347 15.4348 2.5 16.7485 2.5C18.0623 2.5 19.1826 2.96299 20.1096 3.88898C21.0365 4.81494 21.5 5.93481 21.5 7.24858C21.5 8.56234 21.037 9.68269 20.111 10.6096C19.185 11.5365 18.0651 12 16.7514 12ZM16.3077 10.1923H17.1923V6.40385H16.3077V10.1923ZM16.75 5.34615C16.8833 5.34615 17 5.29615 17.1 5.19615C17.2 5.09615 17.25 4.97948 17.25 4.84615C17.25 4.71282 17.2 4.59615 17.1 4.49615C17 4.39615 16.8833 4.34615 16.75 4.34615C16.6166 4.34615 16.5 4.39615 16.4 4.49615C16.3 4.59615 16.25 4.71282 16.25 4.84615C16.25 4.97948 16.3 5.09615 16.4 5.19615C16.5 5.29615 16.6166 5.34615 16.75 5.34615Z" fill="white"/>
</g>
</svg>
