<svg width="24" height="24" viewBox="0 0 24 24" fill="none" xmlns="http://www.w3.org/2000/svg">
<mask id="mask0_14_2071" style="mask-type:alpha" maskUnits="userSpaceOnUse" x="0" y="0" width="24" height="24">
<rect width="24" height="24" fill="#D9D9D9"/>
</mask>
<g mask="url(#mask0_14_2071)">
<path d="M11.25 13.75H12.75V10.75H15.75V9.25H12.75V6.25H11.25V9.25H8.25V10.75H11.25V13.75ZM2.5 21.0384V4.3077C2.5 3.80257 2.675 3.375 3.025 3.025C3.375 2.675 3.80257 2.5 4.3077 2.5H19.6923C20.1974 2.5 20.625 2.675 20.975 3.025C21.325 3.375 21.5 3.80257 21.5 4.3077V15.6923C21.5 16.1974 21.325 16.625 20.975 16.975C20.625 17.325 20.1974 17.5 19.6923 17.5H6.03845L2.5 21.0384Z" fill="white"/>
</g>
</svg>
