<svg width="120" height="43" viewBox="0 0 120 43" fill="none" xmlns="http://www.w3.org/2000/svg">
<g clip-path="url(#clip0_7_1753)">
<path d="M20.5881 28.7651L22.4981 33.0453H8.92866L4.69445 42.5186H0L13.347 12.4649L15.7172 17.796L10.8463 28.7728H20.5958L20.5881 28.7651ZM33.8814 42.5186H29.2329L15.0268 10.6393H19.7673L33.8814 42.5186Z" fill="#181D42"/>
<path d="M76.0548 10.6393H71.7285V42.5186H76.0548V10.6393Z" fill="#181D42"/>
<path d="M47.8804 30.7363L58.9722 42.5108H64.8939L51.056 27.7985L47.8804 30.7363Z" fill="#181D42"/>
<path d="M87.6681 42.5186H83.3418V10.6393H87.6681V42.5186ZM110.711 42.5186H105.518L96.7271 29.816H90.1227V25.4897H99.8644C102.235 25.4897 104.145 23.1195 104.145 20.2046C104.145 17.2898 102.235 14.9655 99.8644 14.9655H90.1227V10.6393H99.8644C104.597 10.6393 108.471 14.9195 108.471 20.2046C108.471 24.807 105.602 28.627 101.774 29.5858L110.703 42.5186H110.711Z" fill="#181D42"/>
<path d="M120 10.6393H115.674V42.5186H120V10.6393Z" fill="#181D42"/>
<path d="M38.2996 39.4963V42.5109H42.6258V35.4922L38.2996 39.4963Z" fill="#181D42"/>
<mask id="mask0_7_1753" style="mask-type:luminance" maskUnits="userSpaceOnUse" x="38" y="0" width="39" height="36">
<path d="M70.7772 0L56.387 13.3009L42.6258 26.0189V10.6392H38.2996V35.8067L42.6258 31.8026V31.7873L56.387 19.054V19.0693L76.9981 0H70.7772Z" fill="white"/>
</mask>
<g mask="url(#mask0_7_1753)">
<path d="M76.9981 0H38.2996V35.8067H76.9981V0Z" fill="url(#paint0_linear_7_1753)"/>
</g>
</g>
<defs>
<linearGradient id="paint0_linear_7_1753" x1="38.1891" y1="19.4106" x2="76.8876" y2="19.4106" gradientUnits="userSpaceOnUse">
<stop stop-color="#4A1371"/>
<stop offset="1" stop-color="#D82E4A"/>
</linearGradient>
<clipPath id="clip0_7_1753">
<rect width="120" height="42.5185" fill="white"/>
</clipPath>
</defs>
</svg>
